<svg width="410" height="404" viewBox="0 0 410 404" fill="none" xmlns="http://www.w3.org/2000/svg">
<path d="M308.031 117.62C303.215 115.998 298.171 115.169 293.092 115.164C282.427 115.175 272.088 118.863 263.8 125.614C257.17 120.197 249.177 116.734 240.707 115.611L238.914 115.392C237.43 115.251 235.904 115.164 234.378 115.164C223.678 115.183 213.308 118.892 205 125.673C196.691 118.892 186.321 115.183 175.621 115.164C173.839 115.174 172.057 115.277 170.285 115.475L169.395 115.597C160.894 116.711 152.868 120.177 146.21 125.607C141.221 121.566 135.459 118.598 129.283 116.889C123.107 115.18 116.647 114.764 110.304 115.669C103.962 116.575 97.8717 118.78 92.4118 122.15C86.9519 125.52 82.2385 129.982 78.564 135.259C74.8895 140.537 72.3321 146.517 71.0505 152.83C69.7689 159.142 69.7904 165.652 71.1136 171.956C72.4368 178.26 75.0336 184.223 78.7429 189.476C82.4522 194.729 87.1949 199.159 92.6769 202.493C90.0571 208.807 88.8412 215.621 89.1142 222.458C89.3872 229.295 91.1425 235.989 94.2573 242.072C97.3721 248.155 101.771 253.479 107.146 257.673C112.522 261.867 118.744 264.829 125.376 266.352C123.693 272.462 123.257 278.852 124.096 285.136C124.935 291.42 127.03 297.468 130.256 302.916C133.481 308.364 137.771 313.098 142.865 316.833C147.959 320.569 153.753 323.228 159.896 324.65C157.971 331.641 157.677 338.985 159.039 346.108C160.402 353.232 163.382 359.942 167.749 365.716C172.115 371.489 177.749 376.17 184.211 379.392C190.673 382.614 197.788 384.291 205.001 384.291C212.214 384.291 219.329 382.614 225.791 379.392C232.253 376.17 237.887 371.489 242.253 365.716C246.62 359.942 249.601 353.232 250.963 346.108C252.325 338.985 252.031 331.641 250.106 324.65C256.249 323.228 262.043 320.569 267.137 316.833C272.231 313.098 276.521 308.364 279.746 302.916C282.972 297.468 285.067 291.42 285.906 285.136C286.745 278.851 286.309 272.461 284.626 266.351C291.258 264.829 297.48 261.867 302.855 257.674C308.23 253.48 312.629 248.156 315.744 242.073C318.859 235.991 320.614 229.297 320.888 222.461C321.161 215.624 319.946 208.811 317.327 202.496C324.96 197.849 331.114 191.105 335.063 183.057C339.012 175.01 340.591 165.995 339.614 157.074C338.637 148.154 335.145 139.701 329.549 132.711C323.954 125.72 316.488 120.485 308.031 117.62L308.031 117.62ZM237.721 131.551L238.517 131.658C245.978 132.649 252.809 136.385 257.692 142.144C258.891 143.547 259.965 145.054 260.9 146.647C263.654 151.413 265.096 156.831 265.076 162.343C265.057 167.855 263.577 173.263 260.79 178.009C259.87 179.543 258.826 180.998 257.668 182.359C252.941 187.873 246.435 191.537 239.29 192.707C238.749 192.808 238.173 192.869 237.721 192.923C236.611 193.042 235.495 193.104 234.379 193.111C227.592 193.104 220.999 190.835 215.631 186.659C219.982 179.44 222.328 171.18 222.423 162.739C222.519 154.298 220.36 145.986 216.174 138.67L215.662 137.792C221.025 133.63 227.605 131.37 234.379 131.363C235.495 131.37 236.611 131.432 237.721 131.551V131.551ZM205.857 251.39H204.26C198.985 251.253 193.833 249.752 189.301 247.032C184.769 244.311 181.01 240.464 178.386 235.859L178.091 235.378C177.904 235.072 177.737 234.754 177.594 234.425C175.401 230.138 174.273 225.382 174.304 220.561C174.302 216.692 175.034 212.857 176.461 209.264C186.867 209.071 196.911 205.39 205.001 198.804C213.093 205.391 223.139 209.073 233.548 209.264C235.162 213.356 235.882 217.749 235.658 222.145C235.435 226.541 234.273 230.837 232.253 234.742C232.155 234.962 232.041 235.175 231.911 235.378L231.616 235.859C229.005 240.451 225.265 244.29 220.755 247.01C216.244 249.73 211.114 251.238 205.857 251.39V251.39ZM171.587 131.644L172.236 131.551C173.329 131.44 174.493 131.363 175.622 131.363C180.033 131.364 184.393 132.32 188.404 134.167C192.416 136.014 195.984 138.709 198.868 142.067C200.094 143.475 201.177 145.002 202.1 146.627L203.069 148.357C205.206 152.669 206.318 157.42 206.319 162.237C206.321 166.292 205.529 170.307 203.987 174.054C202.445 177.801 200.184 181.205 197.333 184.072C194.482 186.94 191.097 189.214 187.371 190.765C183.646 192.315 179.653 193.113 175.622 193.111C174.497 193.111 173.37 193.034 172.399 192.936C171.825 192.869 171.253 192.808 170.515 192.672C163.447 191.487 157.022 187.832 152.37 182.351C151.185 181 150.126 179.542 149.204 177.997C146.43 173.267 144.953 167.88 144.926 162.388C144.899 156.896 146.322 151.496 149.049 146.738C150.019 145.076 151.147 143.512 152.417 142.069C157.296 136.318 164.13 132.601 171.587 131.644V131.644ZM107.067 132.989C111.858 131.411 116.96 131.031 121.93 131.881C126.9 132.731 131.59 134.786 135.594 137.867C135.458 138.088 135.321 138.265 135.185 138.492C130.988 145.749 128.791 154 128.819 162.395C128.847 170.791 131.101 179.027 135.346 186.255C135.432 186.4 135.54 186.539 135.627 186.684C130.264 190.845 123.683 193.105 116.91 193.111C112.874 193.127 108.875 192.339 105.143 190.793C101.412 189.248 98.0212 186.974 95.1674 184.104C92.3137 181.234 90.0531 177.824 88.5161 174.071C86.979 170.318 86.1959 166.296 86.2119 162.237C86.1981 155.778 88.2046 149.478 91.9474 144.229C95.6902 138.98 100.98 135.048 107.067 132.989L107.067 132.989ZM105.183 220.561C105.196 216.367 106.061 212.22 107.727 208.375C110.75 208.987 113.826 209.3 116.91 209.31C127.587 209.292 137.937 205.599 146.238 198.845C150.441 202.278 155.208 204.947 160.324 206.73C157.15 216.855 157.538 227.769 161.423 237.639C158.727 241.754 155.083 245.153 150.801 247.547C146.519 249.941 141.725 251.259 136.827 251.39H135.879C127.747 251.386 119.948 248.138 114.194 242.359C108.439 236.579 105.199 228.74 105.184 220.562L105.183 220.561ZM139.788 278.838C139.773 274.826 140.544 270.85 142.055 267.137C153.002 265.706 163.08 260.384 170.466 252.133C176.87 259.173 185.242 264.099 194.482 266.264C191.693 276.05 192.21 286.49 195.952 295.949C193.236 300.048 189.585 303.436 185.305 305.83C181.024 308.224 176.236 309.555 171.341 309.712H170.486C162.347 309.703 154.544 306.447 148.789 300.659C143.035 294.871 139.797 287.024 139.788 278.839L139.788 278.838ZM205 367.991C196.862 367.981 189.059 364.726 183.305 358.938C177.55 353.15 174.314 345.303 174.304 337.117C174.292 333.12 175.061 329.158 176.569 325.46C187.499 323.971 197.563 318.672 205.006 310.485C212.451 318.66 222.508 323.954 233.429 325.449C234.94 329.151 235.711 333.116 235.698 337.117C235.689 345.303 232.452 353.15 226.697 358.938C220.942 364.726 213.139 367.982 205 367.991V367.991ZM239.516 309.712L238.842 309.714C233.53 309.573 228.344 308.058 223.784 305.315C219.224 302.572 215.444 298.693 212.808 294.053C212.582 293.665 212.391 293.311 212.167 292.862C210.151 288.905 209.017 284.554 208.842 280.111C208.667 275.668 209.457 271.24 211.156 267.135C222.074 265.639 232.121 260.328 239.538 252.133C246.931 260.369 257.002 265.684 267.942 267.122C269.457 270.839 270.229 274.821 270.214 278.839C270.205 287.024 266.968 294.871 261.213 300.659C255.458 306.447 247.655 309.703 239.516 309.712V309.712ZM274.121 251.39H273.315C268.393 251.275 263.572 249.964 259.263 247.568C254.955 245.172 251.287 241.763 248.573 237.631C252.459 227.759 252.852 216.844 249.688 206.715C254.8 204.927 259.565 202.262 263.771 198.838C272.064 205.603 282.414 209.3 293.092 209.31C296.176 209.3 299.251 208.987 302.274 208.374C304.305 213.062 305.141 218.186 304.707 223.281C304.272 228.376 302.58 233.281 299.784 237.553C296.989 241.824 293.178 245.327 288.696 247.743C284.215 250.159 279.205 251.412 274.121 251.39V251.39ZM303.617 191.276C300.24 192.494 296.679 193.115 293.092 193.111C286.319 193.11 279.737 190.847 274.382 186.675C274.464 186.54 274.568 186.404 274.647 186.269C278.906 179.024 281.162 170.767 281.183 162.351C281.203 153.935 278.987 145.666 274.763 138.401C274.651 138.212 274.533 138.058 274.42 137.874C278.419 134.792 283.104 132.736 288.07 131.884C293.037 131.032 298.134 131.41 302.923 132.985C308.947 135.038 314.188 138.92 317.925 144.096C321.662 149.272 323.71 155.487 323.786 161.883C323.862 168.279 321.963 174.542 318.35 179.806C314.738 185.071 309.59 189.078 303.617 191.276V191.276Z" fill="url(#paint0_linear)" stroke="white" stroke-width="6"/>
<path d="M283.579 35.9086C264.965 35.93 247.12 43.3762 233.958 56.6136C220.796 69.8509 213.392 87.7984 213.371 106.519C213.371 108.667 212.522 110.727 211.012 112.246C209.502 113.765 207.453 114.618 205.317 114.618C203.181 114.618 201.133 113.765 199.623 112.246C198.112 110.727 197.264 108.667 197.264 106.519C197.29 83.5034 206.392 61.4381 222.573 45.1637C238.755 28.8894 260.694 19.7351 283.579 19.7094C285.715 19.7094 287.763 20.5628 289.273 22.0817C290.784 23.6007 291.632 25.6608 291.632 27.809C291.632 29.9571 290.784 32.0173 289.273 33.5362C287.763 35.0552 285.715 35.9086 283.579 35.9086V35.9086Z" fill="url(#paint1_linear)" stroke="white" stroke-width="6"/>
<path d="M79.8897 34.9831L83.1063 33.6918C103.331 25.6147 125.915 25.935 145.906 34.5824C165.896 43.2298 181.66 59.4983 189.739 79.8195L191.021 83.0506C191.413 84.0387 191.608 85.0948 191.594 86.1585C191.58 87.2222 191.358 88.2728 190.941 89.2502C190.523 90.2276 189.918 91.1127 189.161 91.8551C188.403 92.5974 187.507 93.1823 186.525 93.5765L183.308 94.8658C173.676 98.7383 163.398 100.729 153.025 100.733C136.589 100.734 120.529 95.7805 106.919 86.5117C93.3091 77.2428 82.7739 64.0842 76.6732 48.7342L75.3932 45.5031C74.6029 43.5083 74.6326 41.2796 75.4758 39.3068C76.319 37.3341 77.9066 35.7789 79.8897 34.9831V34.9831ZM172.86 81.4311C165.942 67.0867 154.122 55.7261 139.56 49.4267C124.998 43.1272 108.668 42.3101 93.5565 47.1246C100.487 61.4575 112.309 72.8078 126.867 79.1054C141.424 85.403 157.748 86.2284 172.86 81.4311V81.4311Z" fill="url(#paint2_linear)" stroke="white" stroke-width="6"/>
<defs>
<linearGradient id="paint0_linear" x1="52.6143" y1="138.01" x2="339.895" y2="331.647" gradientUnits="userSpaceOnUse">
<stop stop-color="#3B82F6"/>
<stop offset="0.536458" stop-color="#4F46E5"/>
<stop offset="1" stop-color="#5B21B6"/>
</linearGradient>
<linearGradient id="paint1_linear" x1="244.448" y1="19.7094" x2="244.448" y2="114.618" gradientUnits="userSpaceOnUse">
<stop stop-color="#3B82F6"/>
<stop offset="0.536458" stop-color="#4F46E5"/>
<stop offset="1" stop-color="#5B21B6"/>
</linearGradient>
<linearGradient id="paint2_linear" x1="133.208" y1="27.8572" x2="214.507" y2="74.5229" gradientUnits="userSpaceOnUse">
<stop stop-color="#3B82F6"/>
<stop offset="0.536458" stop-color="#4F46E5"/>
<stop offset="1" stop-color="#5B21B6"/>
</linearGradient>
</defs>
</svg>
